<?xml version="1.0" encoding="utf-8"?>
<!-- Generator: Adobe Illustrator 24.2.1, SVG Export Plug-In . SVG Version: 6.00 Build 0)  -->
<svg version="1.1" id="Ebene_1" xmlns="http://www.w3.org/2000/svg" xmlns:xlink="http://www.w3.org/1999/xlink" x="0px" y="0px"
	 viewBox="0 0 537 424" style="enable-background:new 0 0 537 424;" xml:space="preserve">
<g>
	<path d="M533.5,415.7c0,3.5-2.8,6.3-6.3,6.3h-514c-3.5,0-6.3-2.8-6.3-6.3V42.3h-2v373.4c0,4.6,3.7,8.3,8.3,8.3h514
		c4.6,0,8.3-3.7,8.3-8.3V42.3h-2V415.7z"/>
	<path d="M527.2,3.3h-514c-4.6,0-8.3,3.7-8.3,8.3v14.6v12.1h2V11.6c0-3.5,2.8-6.3,6.3-6.3h514c3.5,0,6.3,2.8,6.3,6.3v26.7h2V11.6
		C535.5,7,531.8,3.3,527.2,3.3z"/>
	<path d="M531.5,415.7c0,2.4-1.9,4.3-4.3,4.3h-514c-2.4,0-4.3-1.9-4.3-4.3V42.3h-2v373.4c0,3.5,2.8,6.3,6.3,6.3h514
		c3.5,0,6.3-2.8,6.3-6.3V42.3h-2V415.7z"/>
	<path d="M8.8,26.2V11.6c0-2.4,1.9-4.3,4.3-4.3h514c2.4,0,4.3,1.9,4.3,4.3v26.7h2V11.6c0-3.5-2.8-6.3-6.3-6.3h-514
		c-3.5,0-6.3,2.8-6.3,6.3v26.7h2L8.8,26.2L8.8,26.2z"/>
	<rect x="8.8" y="40.3" width="522.7" height="2"/>
	<rect x="8.8" y="38.3" width="522.7" height="2"/>
</g>
<circle cx="27.3" cy="21.8" r="7.5"/>
<circle cx="50.3" cy="21.8" r="7.5"/>
<circle cx="73.3" cy="21.8" r="7.5"/>
</svg>
